# xmcd
#
# Track frame offsets: 
#        150
#        18088
#        36716
#        53394
#        68010
#        87556
#        106419
#        122825
#        142153
#        159786
#        179531
#        194290
#        213628
#        232856
#
# Disc length: 3304 seconds
#
# Revision: 0
# Processed by: cddbd v1.5.2PL0 Copyright (c) Steve Scherf et al.
# Submitted via: ExactAudioCopy v0.95b4
#
DISCID=c00ce60e
DTITLE=รวมดาว สาวเสียงอิสาน - รวมดาว สาวเสียงอิสาน
DYEAR=2007
DGENRE=Country
TTITLE0=สุดท้ายก็ไปอยู่ดี
TTITLE1=โชคร้ายเพราะชายเลว
TTITLE2=น้ำตาหล่นวันวาเลนไทน์
TTITLE3=2นาทีก็มีแฮง
TTITLE4=รักมีแต่รอ
TTITLE5=คำแสลงใจ
TTITLE6=สัญญาผูกขาด
TTITLE7=เฒ่าโลโซ
TTITLE8=สาว ม.4
TTITLE9=ฟ้าฮ้องน้องไห้
TTITLE10=อีหลีบ่จ้า
TTITLE11=คืนฝนเป็นใจ
TTITLE12=ซิมใหม่หัวใจดวงเดิม
TTITLE13=ปอบพาเป็น
EXTD=
EXTT0=
EXTT1=
EXTT2=
EXTT3=
EXTT4=
EXTT5=
EXTT6=
EXTT7=
EXTT8=
EXTT9=
EXTT10=
EXTT11=
EXTT12=
EXTT13=
PLAYORDER=
